<?xml version="1.0" encoding="utf-8"?>
<!-- Generator: Adobe Illustrator 22.1.0, SVG Export Plug-In . SVG Version: 6.00 Build 0)  -->
<svg version="1.1" id="Livello_1" xmlns="http://www.w3.org/2000/svg" xmlns:xlink="http://www.w3.org/1999/xlink" x="0px" y="0px"
	 viewBox="0 0 64 64" style="enable-background:new 0 0 64 64;" xml:space="preserve">
<style type="text/css">
	.st0{fill:#FFFFFF;}
	.st1{fill:#42261A;}
</style>
<title></title>
<path class="st0" d="M0,32c0,17.7,14.3,32,32,32s32-14.3,32-32S49.7,0,32,0S0,14.3,0,32z"/>
<g id="User">
	<g>
		<path class="st1" d="M39.4,29.7C39.3,29.7,39.3,29.7,39.4,29.7C39.3,29.7,39.3,29.7,39.4,29.7c-1.9,1.5-4.2,2.5-6.8,2.5
			c-2.6,0-4.9-1-6.7-2.5c-6.4,1.8-10.7,6.1-10.7,11.3v5.3c0,2.9,2.3,5.3,5.3,5.3h24.5c2.9,0,5.2-2.4,5.2-5.3V41
			C50.1,35.8,45.8,31.5,39.4,29.7z"/>
	</g>
	<g>
		<path class="st1" d="M42.8,19.4c0,3.1-1.3,5.7-3.5,7.5c0,0,0,0,0,0c-1.8,1.5-4.1,2.5-6.8,2.5c-2.6,0-4.9-1-6.7-2.5c0,0,0,0,0,0
			c-2.2-1.8-3.5-4.6-3.5-7.6c0-5.6,4.6-10.1,10.3-10.1S42.9,13.8,42.8,19.4z"/>
	</g>
</g>
</svg>
